HIERARCHY
ROOT Hips
{
	OFFSET	0.00	0.00	0.00
	CHANNELS 6 Xposition Yposition Zposition Zrotation Xrotation Yrotation
	JOINT LeftUpLeg
	{
		OFFSET	 0.126116	-0.014019	-0.065224
		CHANNELS 3 Zrotation Xrotation Yrotation
		JOINT LeftLeg
		{
			OFFSET	 0.000000	 0.000000	 0.569914
			CHANNELS 3 Zrotation Xrotation Yrotation
			JOINT LeftFoot
			{
				OFFSET	 0.000000	 0.000000	 0.544423
				CHANNELS 3 Zrotation Xrotation Yrotation
				JOINT LeftToeBase
				{
					OFFSET	 0.000000	 0.000000	 0.207117
					CHANNELS 3 Zrotation Xrotation Yrotation
					End Site
					{
						OFFSET	 0.000000	 0.000000	 0.207117
					}
				}
			}
		}
	}
	JOINT RightUpLeg
	{
		OFFSET	-0.124023	-0.008373	-0.065224
		CHANNELS 3 Zrotation Xrotation Yrotation
		JOINT RightLeg
		{
			OFFSET	 0.000000	 0.000000	 0.570047
			CHANNELS 3 Zrotation Xrotation Yrotation
			JOINT RightFoot
			{
				OFFSET	 0.000000	 0.000000	 0.544354
				CHANNELS 3 Zrotation Xrotation Yrotation
				JOINT RightToeBase
				{
					OFFSET	 0.000000	 0.000000	 0.207540
					CHANNELS 3 Zrotation Xrotation Yrotation
					End Site
					{
						OFFSET	 0.000000	 0.000000	 0.207540
					}
				}
			}
		}
	}
	JOINT Spine
	{
		OFFSET	 0.000184	-0.007763	 0.117403
		CHANNELS 3 Zrotation Xrotation Yrotation
		JOINT Spine1
		{
			OFFSET	 0.000000	 0.000000	 0.137269
			CHANNELS 3 Zrotation Xrotation Yrotation
			JOINT Spine2
			{
				OFFSET	 0.000000	 0.000000	 0.156879
				CHANNELS 3 Zrotation Xrotation Yrotation
				JOINT LeftShoulder
				{
					OFFSET	 0.080501	-0.002496	 0.160144
					CHANNELS 3 Zrotation Xrotation Yrotation
					JOINT LeftArm
					{
						OFFSET	 0.000000	 0.000000	 0.164363
						CHANNELS 3 Zrotation Xrotation Yrotation
						JOINT LeftForeArm
						{
							OFFSET	 0.000000	 0.000000	 0.364576
							CHANNELS 3 Zrotation Xrotation Yrotation
							JOINT LeftHand
							{
								OFFSET	 0.000000	 0.000000	 0.360812
								CHANNELS 3 Zrotation Xrotation Yrotation
								JOINT LeftHandIndex1
								{
									OFFSET	 0.000000	 0.000000	 0.086006
									CHANNELS 3 Zrotation Xrotation Yrotation
									JOINT LeftHandIndex2
									{
										OFFSET	 0.000000	 0.000000	 0.047236
										CHANNELS 3 Zrotation Xrotation Yrotation
										JOINT LeftHandIndex3
										{
											OFFSET	-0.004284	-0.000551	 0.038166
											CHANNELS 3 Zrotation Xrotation Yrotation
											End Site
											{
												OFFSET	-0.004284	-0.000551	 0.038166
											}
										}
									}
								}
							}
						}
					}
				}
				JOINT Neck
				{
					OFFSET	 0.000000	 0.000000	 0.176489
					CHANNELS 3 Zrotation Xrotation Yrotation
					JOINT Head
					{
						OFFSET	 0.000000	-0.001747	 0.077940
						CHANNELS 3 Zrotation Xrotation Yrotation
						End Site
						{
							OFFSET	 0.000000	-0.001747	 0.077940
						}
					}
				}
				JOINT RightShoulder
				{
					OFFSET	-0.080363	 0.000306	 0.159706
					CHANNELS 3 Zrotation Xrotation Yrotation
					JOINT RightArm
					{
						OFFSET	 0.000000	 0.000000	 0.164196
						CHANNELS 3 Zrotation Xrotation Yrotation
						JOINT RightForeArm
						{
							OFFSET	 0.000000	 0.000000	 0.365611
							CHANNELS 3 Zrotation Xrotation Yrotation
							JOINT RightHand
							{
								OFFSET	 0.000000	 0.000000	 0.360648
								CHANNELS 3 Zrotation Xrotation Yrotation
								JOINT RightHandIndex1
								{
									OFFSET	 0.000000	 0.000000	 0.069977
									CHANNELS 3 Zrotation Xrotation Yrotation
									JOINT RightHandIndex2
									{
										OFFSET	 0.000000	 0.000000	 0.052305
										CHANNELS 3 Zrotation Xrotation Yrotation
										JOINT RightHandIndex3
										{
											OFFSET	 0.009002	-0.000782	 0.042196
											CHANNELS 3 Zrotation Xrotation Yrotation
											End Site
											{
												OFFSET	 0.009002	-0.000782	 0.042196
											}
										}
									}
								}
							}
						}
					}
				}
			}
		}
	}
}
MOTION
Frames:    12
Frame Time: 0.03333334
-13.671280	-37.694330	 0.817791	-41.977830	 9.304607	 3.061258	 5.548520	-20.462390	 175.414000	-4.320261	-36.425290	-1.080690	-1.227198	 83.571720	-0.549508	-2.331145	 36.744770	-0.191575	-1.866891	-22.346710	-178.953800	-2.004039	-40.181330	-0.890306	-1.526083	 86.727510	 0.815216	 2.394055	 25.957570	-0.051777	-6.919114	 5.375581	-1.434116	-11.300220	 3.841405	-2.056767	-13.802160	 1.117063	-0.782391	-101.391300	 88.596670	-167.732500	 54.193840	 68.190030	-64.011410	-4.839028	-4.281127	-17.467050	 7.215355	-10.263830	-5.391894	-2.256680	-11.343980	 6.558813	-5.213516	-0.193813	 3.566525	-1.378229	 35.397820	-2.634230	 0.751290	 1.391077	 0.663260	-3.115219	 2.445928	 0.641079	 96.656170	 87.909780	 170.189600	-51.278140	 75.689400	 64.608780	-2.214314	-12.725230	 23.205000	-24.561510	-11.110790	 9.738885	-7.399635	-4.237758	-37.015090	 5.070815	-0.697434	-9.399699	-2.350882	 35.473990	 5.254307
-13.673460	-37.695240	 0.817378	-41.864620	 9.123213	 2.994629	 5.471786	-20.261520	 175.389800	-4.321078	-36.490450	-1.130433	-1.275477	 83.667290	-0.568260	-2.329091	 36.969840	-0.197196	-1.761866	-21.747770	-178.978900	-1.916087	-39.480340	-0.780222	-1.495824	 86.469920	 0.904336	 2.395188	 25.608980	-0.059079	-7.046039	 5.353112	-1.432729	-11.344710	 3.964162	-2.036612	-13.771260	 1.228452	-0.767212	-101.139600	 88.607870	-168.076300	 53.678120	 68.368370	-63.370930	-4.820482	-4.247031	-17.047110	 7.379659	-10.284070	-5.390901	-2.972321	-11.621080	 4.879572	-5.213516	-0.193813	 3.566525	-1.378229	 35.397820	-2.634230	 0.770348	 1.487571	 0.712589	-3.049293	 2.662109	 0.692386	 96.768990	 87.935030	 170.072400	-51.849310	 75.649470	 65.042900	-2.354437	-12.679220	 23.151630	-24.552850	-11.115740	 9.743991	-7.353464	-4.248097	-36.888960	 5.070815	-0.697434	-9.399699	-2.350882	 35.473990	 5.254307
-13.680210	-37.697510	 0.816945	-41.323980	 8.893827	 2.777833	 5.237230	-19.805850	 175.350800	-4.149083	-36.422220	-1.159579	-1.374484	 83.806370	-0.521497	-2.324459	 37.465840	-0.209666	-1.854929	-19.806430	-179.023500	-1.255234	-37.047060	-0.456188	-1.399879	 86.529590	 1.255982	 2.391224	 26.767150	-0.034705	-7.515330	 5.056580	-1.468646	-11.558950	 4.272445	-1.977630	-13.774690	 1.603118	-0.722267	-100.178000	 88.601280	-169.285200	 52.854280	 68.848390	-62.342500	-4.864213	-4.166741	-16.182670	 7.752390	-10.335500	-5.397805	-3.365889	-11.917310	 3.959924	-5.213516	-0.193813	 3.566525	-1.378229	 35.397820	-2.634230	 0.731709	 1.742757	 0.889023	-2.922726	 3.350330	 0.598337	 97.268520	 88.041950	 169.559900	-52.709090	 75.717750	 65.328060	-2.544158	-12.557400	 23.109030	-24.468550	-11.132810	 9.765340	-7.217089	-4.160061	-36.605180	 5.070815	-0.697434	-9.399699	-2.350882	 35.473990	 5.254307
-13.686860	-37.698140	 0.817183	-41.125350	 8.848795	 3.080974	 4.947237	-19.349850	 174.827000	-4.067317	-36.017970	-1.283059	-1.469793	 83.550490	-0.625866	-2.322279	 37.693480	-0.215441	-2.274997	-18.655380	-179.649600	-1.177215	-35.139810	-0.707372	-1.731474	 86.337770	 1.260551	 2.395480	 25.515970	-0.061015	-7.925625	 4.842690	-2.089557	-11.551030	 4.429274	-2.047224	-13.748020	 1.842130	-0.692104	-98.816200	 88.419340	-170.726800	 52.422640	 69.684680	-62.265500	-5.456273	-4.158062	-15.789310	 8.163617	-10.396820	-5.421275	-3.270504	-12.029640	 4.178109	-5.213516	-0.193813	 3.566525	-1.378229	 35.397820	-2.634230	 0.809685	 2.023644	 1.112435	-2.897087	 3.839802	 0.725652	 98.344560	 88.277280	 168.537200	-53.263650	 75.839270	 65.299440	-2.537877	-12.381150	 23.178590	-24.253460	-11.161590	 9.804245	-7.082364	-3.935820	-36.426550	 5.070815	-0.697434	-9.399699	-2.350882	 35.473990	 5.254307
-13.691210	-37.698350	 0.817709	-41.936970	 8.902212	 3.210855	 4.941370	-18.918830	 174.820000	-4.418021	-35.383420	-1.458360	-1.528156	 83.175420	-0.872436	-2.323382	 37.578560	-0.212525	-2.460998	-18.435330	-179.756500	-1.766578	-34.513830	-1.153795	-2.385703	 86.055890	 1.256393	 2.397682	 24.774740	-0.076431	-8.051850	 4.568129	-2.205689	-11.249820	 4.506838	-2.027420	-13.661930	 2.010351	-0.667616	-98.926550	 88.383960	-170.522600	 52.320380	 70.384840	-62.094510	-6.731636	-4.063915	-16.491090	 7.563068	-10.436440	-5.476080	-3.823538	-12.792690	 2.902069	-5.213516	-0.193813	 3.566525	-1.378229	 35.397820	-2.634230	 1.020824	 2.263579	 1.094450	-2.940470	 3.939372	 0.621522	 98.006900	 88.314490	 169.058300	-53.169720	 75.837440	 64.990230	-2.500962	-12.230320	 23.297070	-24.101940	-11.198730	 9.851316	-6.997425	-3.724028	-36.366310	 5.070815	-0.697434	-9.399699	-2.350882	 35.473990	 5.254307
-13.694570	-37.697820	 0.818728	-42.620530	 8.879389	 2.618814	 5.111672	-18.132160	 175.331600	-4.748030	-34.461220	-1.474091	-1.621881	 82.884780	-0.901014	-2.325879	 37.315780	-0.205880	-2.465793	-18.620200	-179.327200	-1.913532	-34.517100	-1.210696	-2.650219	 86.052250	 1.442519	 2.396673	 25.124090	-0.069182	-8.541106	 4.573144	-1.504072	-11.157970	 4.555401	-1.739636	-13.610980	 2.184056	-0.644408	-99.453170	 88.445180	-169.935600	 54.328460	 69.705320	-63.714950	-7.435251	-3.777518	-18.163410	 5.898811	-10.482250	-5.567061	-3.747014	-12.831060	 3.076360	-5.213516	-0.193813	 3.566525	-1.378229	 35.397820	-2.634230	 1.110577	 2.186794	 0.949182	-2.908232	 4.209291	 0.371152	 97.564190	 88.236200	 169.505500	-52.674470	 75.697770	 64.623180	-2.428918	-12.047900	 23.471040	-23.960980	-11.251530	 9.921376	-6.968510	-3.626354	-36.365110	 5.070815	-0.697434	-9.399699	-2.350882	 35.473990	 5.254307
-13.696710	-37.697470	 0.819734	-42.625070	 8.902583	 2.421975	 5.131010	-17.826110	 175.437100	-4.735090	-33.919060	-1.416117	-1.703034	 82.809280	-0.795516	-2.326958	 37.200800	-0.202984	-2.505348	-18.546260	-179.298700	-1.793140	-34.724770	-1.160060	-2.729340	 86.057020	 1.602421	 2.395810	 25.412370	-0.063185	-9.330539	 4.606865	-1.476041	-11.262630	 4.524256	-1.612423	-13.589680	 2.182680	-0.643554	-98.692000	 88.346600	-170.772800	 56.489530	 68.547100	-65.985740	-6.562017	-3.737334	-19.069340	 5.590434	-10.550690	-5.638863	-3.501223	-11.946510	 3.646635	-5.213516	-0.193813	 3.566525	-1.378229	 35.397820	-2.634230	 1.097541	 2.206950	 1.002769	-2.841827	 4.274131	 0.494313	 98.339940	 88.323920	 168.635000	-51.755140	 75.559070	 63.871500	-2.234264	-11.862750	 23.722160	-23.748550	-11.303440	 9.995229	-7.011088	-3.702173	-36.418360	 5.070815	-0.697434	-9.399699	-2.350882	 35.473990	 5.254307
-13.698690	-37.697540	 0.820631	-42.368060	 8.940045	 2.302772	 5.102744	-17.678040	 175.458700	-4.597749	-33.600280	-1.332603	-1.766115	 82.762970	-0.638950	-2.327834	 37.107130	-0.200629	-2.537588	-18.437590	-179.298700	-1.583241	-34.789020	-1.056655	-2.760819	 86.051660	 1.787838	 2.394757	 25.743520	-0.056265	-10.408390	 4.449152	-1.589670	-11.461790	 4.522726	-1.561945	-13.610210	 2.190285	-0.643629	-97.915830	 88.273540	-171.699700	 57.942210	 67.718980	-67.921760	-6.049936	-3.712834	-19.897600	 5.481449	-10.644760	-5.728804	-3.235335	-11.114380	 4.280015	-5.213516	-0.193813	 3.566525	-1.378229	 35.397820	-2.634230	 1.022810	 2.293642	 1.036075	-2.786809	 4.330110	 0.697753	 99.638240	 88.475560	 167.250700	-50.070390	 75.440200	 62.294870	-1.763103	-11.624440	 24.213390	-23.316300	-11.368610	 10.092080	-7.053508	-3.711244	-36.521680	 5.070815	-0.697434	-9.399699	-2.350882	 35.473990	 5.254307
-13.700080	-37.697500	 0.821376	-41.957920	 8.921000	 2.150964	 5.106101	-17.583060	 175.467100	-4.316394	-33.440410	-1.165311	-1.717907	 82.751590	-0.445608	-2.328449	 37.040760	-0.198964	-2.644774	-18.300930	-179.255500	-1.374624	-34.741700	-0.990558	-2.827480	 86.032120	 1.952379	 2.394717	 25.754800	-0.056028	-11.620580	 4.421125	-1.547574	-11.721800	 4.590277	-1.580415	-13.695480	 2.264670	-0.638781	-97.654410	 88.298890	-172.088500	 58.707370	 67.262990	-69.171700	-6.678301	-3.445285	-20.943470	 4.611948	-10.742370	-5.839992	-3.379369	-10.957590	 3.945144	-5.213516	-0.193813	 3.566525	-1.378229	 35.397820	-2.634230	 0.862493	 2.254021	 1.028574	-2.748947	 4.515588	 0.633979	 99.903520	 88.466220	 166.888300	-48.209050	 75.307330	 60.595420	-1.104268	-11.368240	 24.899660	-22.745340	-11.440540	 10.203800	-7.091620	-3.650382	-36.667070	 5.070815	-0.697434	-9.399699	-2.350882	 35.473990	 5.254307
-13.701180	-37.697600	 0.821893	-41.581280	 8.906713	 2.056830	 5.054609	-17.407690	 175.483900	-4.093546	-33.295890	-1.060676	-1.771888	 82.770730	-0.241879	-2.329378	 36.939330	-0.196422	-2.770888	-18.120320	-179.302100	-1.152524	-34.678930	-0.933179	-2.905226	 86.022510	 2.116273	 2.394736	 25.749690	-0.056139	-12.866600	 4.453303	-1.463009	-11.929240	 4.670427	-1.655888	-13.808610	 2.347875	-0.634047	-97.913120	 88.403820	-171.892700	 59.065000	 66.618580	-69.842260	-7.203696	-3.154185	-22.523930	 3.612273	-10.841060	-5.970604	-3.322424	-10.689030	 4.084294	-5.213516	-0.193813	 3.566525	-1.378229	 35.397820	-2.634230	 0.688365	 2.119600	 1.091802	-2.747130	 4.730996	 0.318077	 99.458020	 88.371650	 167.259200	-46.279160	 75.164880	 58.858040	-0.204096	-11.053880	 25.794350	-21.961220	-11.519000	 10.335150	-7.134598	-3.560699	-36.847500	 5.070815	-0.697434	-9.399699	-2.350882	 35.473990	 5.254307
-13.701890	-37.697670	 0.822202	-41.259610	 8.953259	 2.060693	 5.016368	-17.325670	 175.449500	-3.904928	-33.114520	-0.968942	-1.837106	 82.826980	-0.051890	-2.330474	 36.819020	-0.193419	-2.813188	-17.990470	-179.294100	-0.956297	-34.604370	-0.843696	-2.975638	 86.022260	 2.321095	 2.394611	 25.789960	-0.055290	-14.332630	 4.414107	-1.442896	-12.056420	 4.697449	-1.748752	-13.919290	 2.380765	-0.635169	-98.376230	 88.511150	-171.445300	 58.916710	 65.798460	-70.217060	-7.702205	-2.859254	-25.024150	 2.611675	-10.961670	-6.142857	-3.399854	-10.672770	 3.901762	-5.213516	-0.193813	 3.566525	-1.378229	 35.397820	-2.634230	 0.551123	 2.128560	 0.950578	-2.815609	 4.715636	 0.271756	 98.846310	 88.265280	 167.843300	-44.355340	 74.975850	 57.263300	 1.195756	-10.565170	 27.096580	-20.700350	-11.616630	 10.512960	-7.177684	-3.493797	-37.011160	 5.070815	-0.697434	-9.399699	-2.350882	 35.473990	 5.254307
-13.701820	-37.697540	 0.822403	-41.116950	 8.956413	 2.030746	 5.046655	-17.348730	 175.458800	-3.807306	-33.029500	-0.894437	-1.897866	 82.886440	 0.117824	-2.330601	 36.805180	-0.193075	-2.802384	-18.024090	-179.280300	-0.866725	-34.560240	-0.786886	-3.048296	 86.027590	 2.480497	 2.394327	 25.877670	-0.053460	-15.421200	 4.433143	-1.357720	-12.114410	 4.718473	-1.778807	-13.988240	 2.415833	-0.634051	-98.703510	 88.563460	-171.103400	 58.274580	 65.476700	-69.992590	-8.526883	-2.511810	-26.820580	 1.703269	-11.059390	-6.278317	-3.816490	-11.188900	 2.917864	-5.213516	-0.193813	 3.566525	-1.378229	 35.397820	-2.634230	 0.469201	 2.041231	 0.974854	-2.851349	 4.790575	 0.041581	 98.442200	 88.195820	 168.244200	-43.503710	 74.780040	 56.724060	 2.147233	-10.207540	 28.146940	-19.785130	-11.689440	 10.654070	-7.196952	-3.514763	-37.045110	 5.070815	-0.697434	-9.399699	-2.350882	 35.473990	 5.254307
